.
 
http://www.scenetime.com  == The Hottest New Scene Tracker on The Net !

...................................NFO:....................................Jonah.Hex.2010.CAM.XviD.V2-TA

[IMG]http://trackeraccess.org/covers/pics/c658b27eeee9cd1cc30970ce4934ca75.png[/IMG]
 
http://www.imdb.com/title/tt1075747/

Plot:
The U.S. military makes a scarred bounty hunter with warrants on his own head an offer he cannot refuse: in exchange for his freedom, he must stop a terrorist who is ready to unleash Hell on Earth.

[b]Source                        : SLUGGER (BIG THANKS)[/b]
Complete name                    : Jonah.Hex.2010.CAM.XviD.V2-TA.avi
Format                           : AVI
Format/Info                      : Audio Video Interleave
File size                        : 712 MiB
Duration                         : 1h 12mn
Overall bit rate                 : 1 367 Kbps
Writing library                  : VirtualDub build 32661/release

Video
ID                               : 0
Format                           : MPEG-4 Visual
Format profile                   : AdvancedSimple@L5
Format settings, BVOP            : Yes
Format settings, QPel            : No
Format settings, GMC             : No warppoints
Format settings, Matrix          : Default (H.263)
Muxing mode                      : Packed bitstream
Codec ID                         : XVID
Codec ID/Hint                    : XviD
Duration                         : 1h 12mn
Bit rate                         : 1 195 Kbps
Width                            : 640 pixels
Height                           : 352 pixels
Display aspect ratio             : 16:9
Frame rate                       : 29.970 fps
Resolution                       : 24 bits
Colorimetry                      : 4:2:0
Scan type                        : Progressive
Bits/(Pixel*Frame)               : 0.177
Stream size                      : 622 MiB (87%)
Writing library                  : XviD 1.2.1 (UTC 2008-12-04)

Audio
ID                               : 1
Format                           : MPEG Audio
Format version                   : Version 1
Format profile                   : Layer 3
Codec ID                         : 55
Codec ID/Hint                    : MP3
Duration                         : 1h 12mn
Bit rate mode                    : Constant
Bit rate                         : 160 Kbps
Channel(s)                       : 2 channels
Sampling rate                    : 44.1 KHz
Resolution                       : 16 bits
Stream size                      : 83.3 MiB (12%)
Alignment                        : Split accross interleaves
Interleave, duration             : 33 ms (1.00 video frame)
Interleave, preload duration     : 500 ms

Notes:
Version 2 is the same flickering video but it competely in sync (this time we received the ORIGINAL original file);) and we lightened it up a bit so it's not as dark as previouse version.


Screens:

Enjoy,
TA-rg